<svg id="Capa_1" enable-background="new 0 0 512 512" height="512" viewBox="0 0 512 512" width="512" xmlns="http://www.w3.org/2000/svg"><g><path d="m349.187 504.398h-186.374c0-17.155 13.907-31.062 31.062-31.062h124.249c17.156 0 31.063 13.907 31.063 31.062z" fill="#46778c"/><path d="m223.88 473.333c-8.58 0-16.35 3.48-21.97 9.1s-9.1 13.39-9.1 21.97h-30c0-8.58 3.48-16.35 9.1-21.97s13.39-9.1 21.97-9.1z" fill="#3a6684"/><path d="m224.938 425.617h62.125v47.719h-62.125z" fill="#365e7d"/><path d="m287.06 425.613v20h-42.12v27.72h-20v-47.72z" fill="#2b4d66"/><path d="m7.502 69.932h496.996v355.685h-496.996z" fill="#46778c"/><path d="m7.5 69.933h50v355.68h-50z" fill="#3a6684"/><path d="m38.564 100.994h434.872v262.498h-434.872z" fill="#9bd8f9"/><path d="m38.56 100.993h18.94v262.5h-18.94z" fill="#73c3f9"/><path d="m69.628 100.994h403.808v30.859h-403.808z" fill="#eaf6ff"/><path d="m38.568 100.994h31.06v30.859h-31.06z" fill="#f25a74"/><path d="m116.457 7.604h279.323v355.888h-279.323z" fill="#eaf6ff"/><path d="m116.46 7.603h20v355.89h-20z" fill="#d8ecfe"/><path d="m318.12 131.853c0 22.99-12.49 43.07-31.06 53.81v.01c-9.13 5.28-19.74 8.31-31.06 8.31s-21.93-3.03-31.06-8.31c-18.57-10.75-31.06-30.83-31.06-53.82 0-34.31 27.81-62.12 62.12-62.12s62.12 27.809 62.12 62.12z" fill="#365e7d"/><path d="m240.323 116.468v10.406c0 8.658 7.019 15.677 15.677 15.677 8.658 0 15.677-7.019 15.677-15.677v-10.406c0-8.658-7.019-15.677-15.677-15.677-8.658 0-15.677 7.019-15.677 15.677z" fill="#ffcebf"/><path d="m287.06 153.873v31.8c-9.13 5.28-19.74 8.31-31.06 8.31s-21.93-3.03-31.06-8.31v-31.8c0-3.15 2.16-5.95 5.38-6.98l17.21-4.34h16.94l17.21 4.34c3.22 1.03 5.38 3.83 5.38 6.98z" fill="#9bd8f9"/><g><path d="m504.5 62.433h-101.22v-54.83c0-4.143-3.358-7.5-7.5-7.5h-48.63c-4.142 0-7.5 3.357-7.5 7.5s3.358 7.5 7.5 7.5h41.13v340.89h-264.32v-340.89h190.5c4.142 0 7.5-3.357 7.5-7.5s-3.358-7.5-7.5-7.5h-198c-4.142 0-7.5 3.357-7.5 7.5v54.83h-101.46c-4.142 0-7.5 3.357-7.5 7.5v355.68c0 4.143 3.358 7.5 7.5 7.5h92.62c4.142 0 7.5-3.357 7.5-7.5s-3.358-7.5-7.5-7.5h-85.12v-340.68h93.96v16.06h-70.4c-4.142 0-7.5 3.357-7.5 7.5v262.5c0 4.143 3.358 7.5 7.5 7.5h434.88c4.142 0 7.5-3.357 7.5-7.5v-106.58c0-4.143-3.358-7.5-7.5-7.5s-7.5 3.357-7.5 7.5v99.08h-62.66v-216.64h62.66v84.88c0 4.143 3.358 7.5 7.5 7.5s7.5-3.357 7.5-7.5v-123.24c0-4.143-3.358-7.5-7.5-7.5h-70.16v-16.06h93.72v340.68h-364.2c-4.142 0-7.5 3.357-7.5 7.5s3.358 7.5 7.5 7.5h84.638v32.724h-23.563c-21.263 0-38.562 17.299-38.562 38.562 0 4.143 3.358 7.5 7.5 7.5h186.373c4.142 0 7.5-3.357 7.5-7.5 0-21.263-17.299-38.562-38.562-38.562h-23.563v-32.724h209.939c4.142 0 7.5-3.357 7.5-7.5v-355.68c0-4.143-3.358-7.5-7.5-7.5zm-395.54 46.059v15.86h-31.83v-15.86zm-46.832.002v15.859h-16.06v-15.859zm-16.068 30.86 62.9-.001v216.64h-62.9zm419.88-30.862v15.86h-62.66v-15.86zm-125.477 388.405h-168.926c3.139-9.326 11.967-16.062 22.338-16.062h124.249c10.372.001 19.2 6.736 22.339 16.062zm-108.025-31.061v-32.72h47.124v32.72z"/><path d="m271.531 402.055c4.142 0 7.5-3.357 7.5-7.5s-3.358-7.5-7.5-7.5h-31.063c-4.142 0-7.5 3.357-7.5 7.5s3.358 7.5 7.5 7.5z"/><path d="m318.125 217.54h-124.25c-4.142 0-7.5 3.357-7.5 7.5s3.358 7.5 7.5 7.5h124.249c4.142 0 7.5-3.357 7.5-7.5s-3.357-7.5-7.499-7.5z"/><path d="m223.605 279.553h-31.122c-4.142 0-7.5 3.357-7.5 7.5s3.358 7.5 7.5 7.5h31.122c4.142 0 7.5-3.357 7.5-7.5s-3.357-7.5-7.5-7.5z"/><path d="m318.125 279.665h-62.125c-4.142 0-7.5 3.357-7.5 7.5s3.358 7.5 7.5 7.5h62.125c4.142 0 7.5-3.357 7.5-7.5s-3.358-7.5-7.5-7.5z"/><path d="m223.605 248.49h-31.122c-4.142 0-7.5 3.357-7.5 7.5s3.358 7.5 7.5 7.5h31.122c4.142 0 7.5-3.357 7.5-7.5s-3.357-7.5-7.5-7.5z"/><path d="m318.125 248.603h-62.125c-4.142 0-7.5 3.357-7.5 7.5s3.358 7.5 7.5 7.5h62.125c4.142 0 7.5-3.357 7.5-7.5s-3.358-7.5-7.5-7.5z"/><path d="m256 62.229c-38.391 0-69.625 31.233-69.625 69.624 0 38.392 31.233 69.625 69.625 69.625 37.826 0 69.625-31.419 69.625-69.625 0-38.39-31.234-69.624-69.625-69.624zm-23.562 118.899v-27.017c.015-.009.033-.019.053-.028l15.971-4.033h15.076l15.971 4.033c.021.01.038.02.053.028v27.017c-15.708 7.134-31.416 7.134-47.124 0zm15.385-54.255v-10.405c0-4.509 3.668-8.177 8.177-8.177s8.177 3.668 8.177 8.177v10.405c0 4.509-3.668 8.177-8.177 8.177s-8.177-3.668-8.177-8.177zm46.739 43.631v-16.629c0-9.765-10.257-15.434-18.146-16.043 1.76-3.265 2.761-6.997 2.761-10.958v-10.405c0-12.779-10.397-23.177-23.177-23.177s-23.177 10.397-23.177 23.177v10.405c0 3.962 1.001 7.693 2.761 10.958-7.889.609-18.146 6.279-18.146 16.043v16.629c-9.917-9.895-16.063-23.568-16.063-38.651 0-30.12 24.504-54.624 54.625-54.624s54.625 24.504 54.625 54.624c0 15.083-6.146 28.757-16.063 38.651z"/></g></g></svg>