<svg id="Filled" height="512" viewBox="0 0 512 512" width="512" xmlns="http://www.w3.org/2000/svg"><rect fill="#d13330" height="368" rx="32" width="400" x="56" y="88"/><path d="m488 488h-464l57.47-165.225a32 32 0 0 1 26.254-21.241l116.276-13.534h64l116.276 13.534a32 32 0 0 1 26.254 21.241z" fill="#b3947b"/><path d="m296 232v24l-8 56s-.25 8-32 8-32-8-32-8l-8-56v-24z" fill="#f0c6a4"/><path d="m344 160h-176l-24-136h192a32 32 0 0 1 32 32z" fill="#734b39"/><path d="m192 96-24 64 24 88s57.75 53.25 128 0l24-88-24-64z" fill="#f7cca9"/><path d="m232 208h48s0 32-24 32-24-32-24-32z" fill="#d13330"/><path d="m392 488h-64l-8-144h80z" fill="#2d85cc"/><path d="m320 344h80l8 32h-96z" fill="#dadcde"/><circle cx="360" cy="424" fill="#395a8d" r="8"/><path d="m168 128h72v48h-72z" fill="#eb423f"/><path d="m272 128h72v48h-72z" fill="#2d85cc"/><path d="m48 120v274.648l-31.556 90.724a8 8 0 0 0 7.556 10.628h464a8 8 0 0 0 7.556-10.628l-31.556-90.724v-274.648a40.045 40.045 0 0 0 -40-40h-53.328l5.128-22.2a8.013 8.013 0 0 0 .2-1.8 40.045 40.045 0 0 0 -40-40h-192a8 8 0 0 0 -7.878 9.391l9.637 54.609h-57.759a40.045 40.045 0 0 0 -40 40zm41.026 205.4a23.852 23.852 0 0 1 19.691-15.929l103.844-12.981 3.5 24.494c.28 2.366 1.752 6.843 8.478 10.18 6.555 3.255 16.846 4.836 31.461 4.836s24.906-1.581 31.462-4.834c6.726-3.337 8.2-7.814 8.478-10.18l3.5-24.494 52.56 6.57v32.938h-32a8 8 0 0 0 -7.761 6.06l-8 32a8 8 0 0 0 7.761 9.94h2.21l5.333 96h-191.543v-80a8 8 0 0 0 -16 0v80h-76.747zm142.974-157.4h-56v-32h56zm16-24h16v16h-16zm32-8h56v32h-56zm-8-16a8 8 0 0 0 -8 8h-16a8 8 0 0 0 -8-8h-48.456l6-16h116.912l6 16zm-32 64a8 8 0 0 0 8-8h16a8 8 0 0 0 8 8h57.162l-16.153 59.229c-26.145 19.05-53.223 24.845-80.53 17.224a97.193 97.193 0 0 1 -33.417-16.963l-16.224-59.49zm-12.548 91.659a100.988 100.988 0 0 0 58.926-.872l-6 42.029c-2.009 1-8.258 3.184-24.374 3.184s-22.365-2.188-24.374-3.184l-5.955-41.689c.585.18 1.176.36 1.777.532zm94.794 92.341 4-16h67.508l4 16zm67.519 16-5.333 96h-48.864l-5.333-96zm10.692 96 5.333-96h2.21a8 8 0 0 0 7.761-9.94l-8-32a8 8 0 0 0 -7.761-6.06h-32v-30.938l35.283 4.411a23.852 23.852 0 0 1 19.691 15.927l53.773 154.6zm23.543-384a24.028 24.028 0 0 1 24 24v228.648l-9.914-28.5a39.755 39.755 0 0 0 -32.818-26.55l-37.268-4.661v-8.937a7.994 7.994 0 0 0 -.845-3.578l-8-16a8 8 0 0 0 -14.31 7.156l7.155 14.311v5.049l-50.3-6.288 1.841-12.887a138.627 138.627 0 0 0 21.289-13.388 7.993 7.993 0 0 0 2.885-4.271l18.085-66.316a8 8 0 0 0 6.2-7.788v-15.09l14.979-64.91zm-88-64a24.028 24.028 0 0 1 23.985 23.152l-14.98 64.918a7.938 7.938 0 0 0 -1-.07h-6.456l-10.058-26.809a8 8 0 0 0 -7.491-5.191h-128a8 8 0 0 0 -7.491 5.191l-10.053 26.809h-5.391l-15.53-88zm-176 128.7v15.3a8 8 0 0 0 6.2 7.788l18.082 66.312a8 8 0 0 0 2.295 3.778 101.193 101.193 0 0 0 21.954 14.406l1.769 12.366-103.568 12.95a39.755 39.755 0 0 0 -32.818 26.55l-9.914 28.498v-228.648a24.028 24.028 0 0 1 24-24h60.582z"/><path d="m256 248c25.312 0 32-26.165 32-40a8 8 0 0 0 -8-8h-48a8 8 0 0 0 -8 8 59.643 59.643 0 0 0 3.509 18.809c5.125 13.666 15.243 21.191 28.491 21.191zm15.012-32a37.185 37.185 0 0 1 -1.5 5.191c-3.636 9.689-9.453 10.809-13.512 10.809-4 0-9.744-1.088-13.39-10.5a36.678 36.678 0 0 1 -1.621-5.5z"/><circle cx="360" cy="424" r="8"/></svg>