<svg height="512" viewBox="0 0 512 512" width="512" xmlns="http://www.w3.org/2000/svg" xmlns:xlink="http://www.w3.org/1999/xlink"><linearGradient id="linear-gradient" gradientUnits="userSpaceOnUse" x1="86.295" x2="425.705" y1="425.705" y2="86.295"><stop offset="0" stop-color="#41dfd0"/><stop offset="1" stop-color="#ee83ef"/></linearGradient><g id="gradient"><path d="m256 16a240 240 0 0 0 -169.706 409.705 240 240 0 1 0 339.412-339.405 238.433 238.433 0 0 0 -169.706-70.3zm158.392 398.392a224 224 0 0 1 -316.784-316.784 224 224 0 0 1 316.784 316.784zm-158.392-366.392c-114.691 0-208 93.309-208 208s93.309 208 208 208 208-93.309 208-208-93.309-208-208-208zm0 400a191.191 191.191 0 0 1 -126.143-47.376 81.831 81.831 0 0 1 46.211-57.324l32.265-14.666a8 8 0 0 0 .943-14.059 88 88 0 1 1 93.448 0 8 8 0 0 0 .943 14.059l32.265 14.666a82.083 82.083 0 0 1 46.214 57.319 191.193 191.193 0 0 1 -126.146 47.381zm139.306-60.01a98.13 98.13 0 0 0 -52.753-59.254l-19.775-8.988a104 104 0 1 0 -133.556 0l-19.775 8.988a97.8 97.8 0 0 0 -52.756 59.251 191.318 191.318 0 0 1 -52.691-131.987c0-105.869 86.131-192 192-192s192 86.131 192 192a191.315 191.315 0 0 1 -52.694 131.99zm5.909-64.718c.964-2.077 1.9-4.2 2.768-6.322a8 8 0 0 1 14.792 6.1c-.961 2.331-1.986 4.672-3.046 6.957a8 8 0 0 1 -14.514-6.735zm5.685-120.606a8 8 0 1 1 15.085-5.332 175.565 175.565 0 0 1 10.015 58.666 177.5 177.5 0 0 1 -3.188 33.515 8 8 0 0 1 -15.711-3.03 161.446 161.446 0 0 0 2.899-30.485 159.634 159.634 0 0 0 -9.1-53.334zm-138.9-94.666a12 12 0 1 1 -12-12 12 12 0 0 1 12 12zm36 0a10 10 0 1 1 -10-10 10 10 0 0 1 10 10zm-76 0a10 10 0 1 1 -10-10 10 10 0 0 1 10 10zm0 132a12 12 0 1 1 12-12 12 12 0 0 1 -12 12zm68-12a12 12 0 1 1 -12-12 12 12 0 0 1 12 12zm-10.343 38.343a8 8 0 0 1 0 11.314 41.988 41.988 0 0 1 -59.314 0 8 8 0 0 1 11.314-11.314 25.969 25.969 0 0 0 36.686 0 8 8 0 0 1 11.314 0z" fill="url(#linear-gradient)"/></g></svg>