<svg id="Layer_1" enable-background="new 0 0 512 512" height="512" viewBox="0 0 512 512" width="512" xmlns="http://www.w3.org/2000/svg"><path d="m264 81.064c-66.587 34.676-92.456 116.767-57.78 183.354 30.459 58.49 98.505 86.681 161.404 66.87l75.096 143.816c6.135 11.75 20.634 16.303 32.384 10.168s16.303-20.634 10.168-32.384l-75.104-143.816c59.431-45.873 70.422-131.238 24.549-190.669-40.307-52.22-112.289-67.964-170.717-37.339" fill="#2199ea"/><path d="m484.152 461.272c-11.75 6.135-26.248 1.584-32.383-10.166 0-.001-.001-.001-.001-.002l-64.848-124.176c-5.729-10.921-17.789-16.968-29.968-15.024-74.037 11.673-143.519-38.882-155.193-112.919-3.002-19.04-1.914-38.502 3.193-57.089-33.074 67.304-5.324 148.676 61.98 181.75 31.333 15.397 67.394 18.134 100.692 7.642l74.472 142.624c5.803 11.713 19.67 16.951 31.768 12 10.224-4.634 15.851-15.754 13.528-26.736-1.023.783-2.106 1.484-3.24 2.096z" fill="#1092ea"/><path d="m224 104v69.696c.002 26.429-13.208 51.11-35.2 65.768-8.345 5.567-18.152 8.537-28.184 8.536h-49.232c-10.032.001-19.839-2.969-28.184-8.536-21.326-14.199-34.446-37.855-35.2-63.464v-80l48-48z" fill="#ffead4"/><path d="m160.616 248h-49.232c-5.221-.003-10.41-.813-15.384-2.4v74.4h80v-74.4c-4.974 1.587-10.163 2.397-15.384 2.4z" fill="#ffead4"/><path d="m184 128c14.888 0 28.072-.416 40-1.064v-22.936l-128-56-21.352 21.352c21.672 28.016 57.248 58.648 109.352 58.648z" fill="#ffdbb5"/><path d="m197.512 275.488-37.512 52.512-8-8v80l-16 8-16-8v-80l-8 8-37.512-52.512-2.488.8c-24.712 8.456-48 28.424-48 51.712v160h48 128 48v-160c0-24.072-24.88-44.592-50.488-52.512z" fill="#e8f7ff"/><path d="m120 400 16 8 16-8v-80l-16-16-16 16z" fill="#2199ea"/><g fill="#8e4819"><path d="m160 104h16c-56-8-64-80-64-80h-32c0 44.183 35.817 80 80 80z"/><path d="m176 104h32c-40-16-56-80-56-80h-40s8 72 64 80z"/><path d="m208 104h32c0-44.183-35.817-80-80-80h-8s16 64 56 80z"/></g><path d="m120 320 16-16-40-40-24 8 2.488 3.488 37.512 52.512z" fill="#e8f7ff"/><path d="m160 328 37.512-52.512h-.008.008l2.488-3.488-24-8-40 40 16 16z" fill="#e8f7ff"/><circle cx="328" cy="200" fill="#ccedff" r="104"/><path d="m432 32v48h48z" fill="#de3a3a"/><path d="m296 456v-67.88l-33.944 33.936z" fill="#de3a3a"/><g fill="#d4f0ff"><path d="m197.512 275.488-37.512 52.512-8-8v80l-16 8-16-8v-80l-8 8-37.512-52.512-2.488.8c-5.299 1.826-10.421 4.129-15.304 6.88l47.304 60.832v64l32 16 32-16v-64l48.256-60.32c-5.928-3.412-12.214-6.159-18.744-8.192z"/><path d="m72 368h16v120h-16z"/><path d="m184 368h16v120h-16z"/></g><circle cx="312" cy="136" fill="#fff" r="24"/><circle cx="356" cy="132" fill="#fff" r="12"/><path d="m80 24h-1.288c-30.216 0-54.712 41.784-54.712 72v14.056c0 21.736 8.632 50.576 24 65.944l48-104z" fill="#8e4819"/><path d="m264 81.04v-.064l.048.088z"/><path d="m120 168c4.418 0 8-3.582 8-8v-8c0-4.418-3.582-8-8-8s-8 3.582-8 8v8c0 4.418 3.582 8 8 8z"/><path d="m184 168c4.418 0 8-3.582 8-8v-8c0-4.418-3.582-8-8-8s-8 3.582-8 8v8c0 4.418 3.582 8 8 8z"/><path d="m260.288 74c59.612-31.225 132.903-16.98 176.479 34.301 51.479 60.58 44.101 151.421-16.479 202.899l72.064 137.96c.005.009.009.018.014.026 8.176 15.668 2.102 34.998-13.566 43.174-7.518 3.95-16.305 4.728-24.4 2.16-8.106-2.519-14.867-8.177-18.776-15.712l-72.064-138.016c-31.536 8.287-64.95 5.636-94.784-7.52l6.448-14.64c28.398 12.532 60.383 14.317 90 5.024 3.699-1.166 7.701.49 9.496 3.928l75.096 143.816c.118.241.243.48.374.715 4.289 7.726 14.029 10.513 21.755 6.224s10.513-14.029 6.224-21.755l-75.089-143.808c-1.793-3.435-.866-7.662 2.2-10.032 48.997-37.921 63.78-105.5 35.091-160.415-32.718-62.626-110.009-86.871-172.634-54.153z"/><path d="m120.408 197.48c-1.391 4.193.879 8.72 5.072 10.112l3.368 1.12c15.031 4.976 31.265 4.976 46.296 0l3.376-1.128c4.197-1.392 6.472-5.923 5.08-10.12s-5.923-6.472-10.12-5.08l-3.392 1.128c-11.748 3.887-24.436 3.887-36.184 0l-3.384-1.12c-4.194-1.389-8.72.885-10.109 5.08-.001.002-.002.005-.003.008z"/><path d="m408 200h-16c-.04 35.33-28.67 63.96-64 64v16c44.163-.048 79.952-35.837 80-80z"/><path d="m480 88c4.418-.001 7.999-3.583 7.998-8.002 0-2.121-.843-4.154-2.342-5.654l-48-48c-3.125-3.124-8.19-3.123-11.314.002-1.499 1.5-2.342 3.533-2.342 5.654v48c0 4.418 3.582 8 8 8zm-40-36.688 20.688 20.688h-20.688z"/><path d="m256 417.016v-89.016c0-26.576-23.768-47.384-48.296-57.32.03-3.07-2.156-5.715-5.176-6.264l-18.528-6.176v-7.2c3.218-1.358 6.308-3.002 9.232-4.912 9.92-6.651 18.363-15.276 24.8-25.336 11.399 60.9 70.009 101.028 130.909 89.629s101.028-70.009 89.629-130.909-70.009-101.028-130.909-89.629c-31.612 5.917-59.164 25.117-75.661 52.725v-30.608h8c4.418 0 8-3.582 8-8-.057-48.577-39.423-87.943-88-88h-81.288c-36.376 0-62.712 47.792-62.712 80v14.064c.073 25.151 8.637 49.54 24.304 69.216 1.724 27.053 15.942 51.762 38.464 66.848 2.924 1.91 6.014 3.554 9.232 4.912v7.2l-18.528 6.176c-2.407.8-4.291 2.694-5.08 5.104-.057.368-.087.74-.088 1.112-24.808 10.016-48.304 30.848-48.304 57.368v160c0 4.418 3.582 8 8 8h224c4.418 0 8-3.582 8-8v-60.896l34.344 34.552c1.5 1.5 3.534 2.344 5.656 2.344 1.052.003 2.093-.203 3.064-.608 2.989-1.239 4.937-4.157 4.936-7.392v-67.88c.001-3.235-1.947-6.153-4.936-7.392-2.99-1.239-6.432-.553-8.72 1.736zm-68.8-140.848-28.216 39.496-11.672-11.664 30.856-30.84zm-51.2 16.52-32-32v-5.232c2.447.338 4.914.52 7.384.544h49.232c2.47-.024 4.937-.206 7.384-.544v5.232zm8 30.624v71.744l-8 4-8-4v-71.744l8-8zm184-219.312c53.019 0 96 42.981 96 96s-42.981 96-96 96-96-42.981-96-96c.057-52.996 43.004-95.943 96-96zm-96.448-8h-21.736c-25.944-11.248-40.928-46.4-46.944-63.864 35.51 1.438 64.669 28.552 68.68 63.864zm-85.6-64c6.914 23.844 19.277 45.754 36.112 64h-5.264c-37.84-5.648-51.088-45.864-55.2-64zm-40.8 0c3.86 22.006 13.819 42.487 28.744 59.112-24.946-9.743-42.443-32.5-45.448-59.112zm-73.152 78.064v-14.064c0-25.504 18.864-57.664 40.448-63.112 1.449 14.282 6.395 27.987 14.4 39.904l-40.624 88c-8.995-15.417-13.892-32.881-14.224-50.728zm55.64 122.736c-18.643-12.485-30.304-33.033-31.464-55.44l41.952-90.888c16.438 16.355 38.684 25.533 61.872 25.528h56v61.696c.021 23.762-11.857 45.957-31.64 59.12-7.028 4.696-15.291 7.202-23.744 7.2h-49.232c-8.454-.003-16.718-2.514-23.744-7.216zm6.192 40.344 30.856 30.856-11.664 11.664-28.224-39.496zm146.168 206.856h-32v-112h-16v112h-112v-112h-16v112h-32v-152c0-18.496 19.432-35.2 39.472-42.976l34.024 47.624c1.365 1.915 3.504 3.132 5.848 3.328h.656v64c-.017 3.047 1.699 5.838 4.424 7.2l16 8c2.251 1.125 4.901 1.125 7.152 0l16-8c2.718-1.358 4.431-4.138 4.424-7.176v-64h.656c2.344-.196 4.483-1.413 5.848-3.328l34.024-47.624c20.4 7.864 39.472 24.24 39.472 42.952zm48-43.312-14.624-14.624 14.624-14.624z"/><path d="m320 384h48v16h-48z"/><path d="m320 416h64v16h-64z"/><path d="m320 448h88v16h-88z"/></svg>